HIERARCHY
ROOT Hips
{
	OFFSET 53.754299 -29.048016 95.689995
	CHANNELS 6 Xposition Yposition Zposition Xrotation Yrotation Zrotation
	JOINT spine
	{
		OFFSET 0.000000 -0.458069 7.965683
		CHANNELS 3 Xrotation Yrotation Zrotation
		JOINT spine1
		{
			OFFSET 0.000000 -0.000002 10.243103
			CHANNELS 3 Xrotation Yrotation Zrotation
			JOINT spine2
			{
				OFFSET 0.000000 -0.000002 9.814751
				CHANNELS 3 Xrotation Yrotation Zrotation
				JOINT Neck
				{
					OFFSET 0.000000 -1.201384 25.198608
					CHANNELS 3 Xrotation Yrotation Zrotation
					JOINT Head
					{
						OFFSET 0.000000 0.000000 7.613144
						CHANNELS 3 Xrotation Yrotation Zrotation
						End Site
						{
							OFFSET 0.000000 6.077326 18.428101
						}
					}
				}
				JOINT RightShoulder
				{
					OFFSET -4.132702 0.575451 10.599213
					CHANNELS 3 Xrotation Yrotation Zrotation
					JOINT RightArm
					{
						OFFSET 0.000000 -0.000004 13.901794
						CHANNELS 3 Xrotation Yrotation Zrotation
						JOINT RightArmRoll
						{
							OFFSET 0.000000 0.000000 7.017883
							CHANNELS 3 Xrotation Yrotation Zrotation
							JOINT RightForeArm
							{
								OFFSET 0.000000 -0.000004 20.440598
								CHANNELS 3 Xrotation Yrotation Zrotation
								JOINT RightForeArmRoll
								{
									OFFSET 0.000000 -0.000002 7.875153
									CHANNELS 3 Xrotation Yrotation Zrotation
									JOINT RightHand
									{
										OFFSET 0.000000 -0.000002 15.803696
										CHANNELS 3 Xrotation Yrotation Zrotation
										End Site
										{
											OFFSET 0.000000 0.000000 0.100006
										}
									}
								}
							}
						}
					}
				}
				JOINT LeftShoulder
				{
					OFFSET 4.132702 0.575451 10.599213
					CHANNELS 3 Xrotation Yrotation Zrotation
					JOINT LeftArm
					{
						OFFSET 0.000000 -0.000004 13.901794
						CHANNELS 3 Xrotation Yrotation Zrotation
						JOINT LeftArmRoll
						{
							OFFSET 0.000000 0.000000 7.017883
							CHANNELS 3 Xrotation Yrotation Zrotation
							JOINT LeftForeArm
							{
								OFFSET 0.000000 -0.000004 20.440598
								CHANNELS 3 Xrotation Yrotation Zrotation
								JOINT LeftForeArmRoll
								{
									OFFSET 0.000000 -0.000002 7.875168
									CHANNELS 3 Xrotation Yrotation Zrotation
									JOINT LeftHand
									{
										OFFSET 0.000000 -0.000002 15.803696
										CHANNELS 3 Xrotation Yrotation Zrotation
										End Site
										{
											OFFSET 0.000000 0.000000 0.100006
										}
									}
								}
							}
						}
					}
				}
			}
		}
	}
	JOINT RightUpLeg
	{
		OFFSET -7.060482 1.086100 -1.294701
		CHANNELS 3 Xrotation Yrotation Zrotation
		JOINT RightUpLegRoll
		{
			OFFSET 0.000000 -0.000004 18.530800
			CHANNELS 3 Xrotation Yrotation Zrotation
			JOINT RightLeg
			{
				OFFSET 0.000000 0.000004 -22.947601
				CHANNELS 3 Xrotation Yrotation Zrotation
				JOINT RightLegRoll
				{
					OFFSET 0.000000 -0.000004 23.022598
					CHANNELS 3 Xrotation Yrotation Zrotation
					JOINT RightFoot
					{
						OFFSET 0.000000 -0.000002 19.162514
						CHANNELS 3 Xrotation Yrotation Zrotation
						JOINT RightToeBase
						{
							OFFSET 0.000000 -0.000004 16.018799
							CHANNELS 3 Xrotation Yrotation Zrotation
							End Site
							{
								OFFSET 0.006790 0.894207 7.757812
							}
						}
					}
				}
			}
		}
	}
	JOINT LeftUpLeg
	{
		OFFSET 7.060482 1.086100 -1.294701
		CHANNELS 3 Xrotation Yrotation Zrotation
		JOINT LeftUpLegRoll
		{
			OFFSET 0.000000 -0.000004 18.530899
			CHANNELS 3 Xrotation Yrotation Zrotation
			JOINT LeftLeg
			{
				OFFSET 0.000000 -0.000004 22.947510
				CHANNELS 3 Xrotation Yrotation Zrotation
				JOINT LeftLegRoll
				{
					OFFSET 0.000000 -0.000004 23.235504
					CHANNELS 3 Xrotation Yrotation Zrotation
					JOINT LeftFoot
					{
						OFFSET 0.000000 -0.000002 18.949600
						CHANNELS 3 Xrotation Yrotation Zrotation
						JOINT LeftToeBase
						{
							OFFSET 0.000000 -0.000004 16.018799
							CHANNELS 3 Xrotation Yrotation Zrotation
							End Site
							{
								OFFSET -0.030430 0.894207 7.757812
							}
						}
					}
				}
			}
		}
	}
}
MOTION
Frames: 13
Frame Time: 0.041667
52.668396 -0.257858 73.189987 35.281052 1.142280 8.147462 0.484040 0.587373 -0.363675 4.974871 1.165993 -0.735490 6.620017 1.157066 -0.749386 9.584004 -0.679817 -5.453536 12.896417 -1.676569 -5.166415 -7.231470 -61.762088 -8.753656 -58.249363 -122.819137 -77.307824 0.000003 0.000000 -0.000003 62.055424 -11.789700 3.641502 -0.000009 0.000006 -3.003510 -4.999757 -7.998709 0.000031 -5.299108 63.918522 6.697544 109.499988 55.069544 -81.983239 0.000001 0.000001 -0.000002 63.011282 15.966185 -6.176080 -0.000002 -0.000001 3.007360 -4.999674 7.998860 0.000046 -96.022938 -167.732412 -5.923451 179.999991 -0.000005 -0.288994 111.564003 -0.285596 -3.571614 -0.000003 -0.000002 0.570322 72.041926 4.483986 8.656867 25.463323 -7.355617 0.000859 -94.399402 179.146464 1.663980 -0.000039 -0.000004 -0.574582 -67.289398 1.020638 3.072541 -0.000006 -0.000002 -0.893179 72.138416 -5.209577 -6.630921 25.458871 7.355614 -0.001623 
52.673595 -0.376480 73.318802 35.106640 1.144796 8.117202 0.474045 0.586148 -0.364035 4.954874 1.163358 -0.736109 6.600028 1.154420 -0.749977 9.494459 -0.702277 -5.419302 12.902209 -1.631163 -5.139222 -7.209663 -61.834242 -8.733773 -58.376916 -123.070515 -77.093178 0.000000 0.000001 -0.000002 61.304684 -12.014724 3.750369 -0.000004 0.000008 -3.003508 -4.999752 -7.998712 0.000028 -5.320812 63.931561 6.723458 109.760730 54.836225 -82.660609 -0.000001 -0.000000 0.000002 62.318427 16.222287 -6.300308 -0.000001 -0.000001 3.007360 -4.999679 7.998861 0.000043 -95.610518 -167.724680 -5.842397 179.999991 -0.000005 -0.295005 111.745255 -0.348284 -3.594116 -0.000003 -0.000002 0.569503 72.092073 4.504347 8.605267 25.463319 -7.355617 0.000859 -94.014596 179.126465 1.701513 -0.000036 -0.000004 -0.576276 -67.128206 1.019985 3.059742 -0.000006 -0.000002 -0.890891 72.192040 -5.215829 -6.616104 25.458873 7.355613 -0.001622 
52.675297 -0.490376 73.465576 34.930520 1.147032 8.086637 0.464012 0.584976 -0.364384 4.934787 1.160823 -0.736730 6.579939 1.151885 -0.750573 9.406387 -0.727862 -5.384372 12.908011 -1.582757 -5.111638 -7.184656 -61.909791 -8.710434 -58.509087 -123.318587 -76.884127 -0.000001 -0.000001 -0.000002 60.546601 -12.237002 3.852559 -0.000003 0.000004 -3.003511 -4.999754 -7.998707 0.000028 -5.341975 63.943015 6.748630 110.016630 54.599859 -83.333868 0.000001 0.000000 0.000001 61.606127 16.476359 -6.416982 -0.000003 -0.000001 3.007358 -4.999677 7.998859 0.000047 -95.195283 -167.716210 -5.759340 179.999991 -0.000004 -0.301002 111.929418 -0.412349 -3.616108 -0.000003 -0.000002 0.568680 72.140499 4.525008 8.552466 25.463316 -7.355617 0.000859 -93.627195 179.106084 1.738904 -0.000038 -0.000004 -0.578038 -66.965811 1.019324 3.046829 -0.000007 -0.000002 -0.888670 72.245247 -5.222314 -6.600533 25.458871 7.355613 -0.001622 
52.681091 -0.598028 73.603683 34.752993 1.148964 8.056049 0.453892 0.583845 -0.364724 4.914536 1.158377 -0.737358 6.559688 1.149437 -0.751174 9.319845 -0.755536 -5.349161 12.913898 -1.532822 -5.083842 -7.156773 -61.988085 -8.683971 -58.643704 -123.563327 -76.678511 -0.000001 0.000000 0.000000 59.782563 -12.456172 3.947494 -0.000004 0.000004 -3.003507 -4.999756 -7.998708 0.000031 -5.361636 63.953916 6.772036 110.265433 54.361650 -84.000228 -0.000001 0.000000 -0.000000 60.876308 16.727663 -6.524951 -0.000002 -0.000001 3.007358 -4.999681 7.998859 0.000047 -94.777406 -167.707509 -5.675652 179.999991 -0.000005 -0.307996 112.115814 -0.477451 -3.638697 -0.000004 -0.000003 0.567832 72.187648 4.545740 8.499113 25.463317 -7.355617 0.000859 -93.237526 179.085484 1.775044 -0.000037 -0.000005 -0.579852 -66.802112 1.018693 3.033830 -0.000006 -0.000001 -0.886491 72.298194 -5.228921 -6.584492 25.458869 7.355613 -0.001622 
52.687897 -0.698605 73.753784 34.574161 1.150583 8.025727 0.443658 0.582748 -0.365048 4.894069 1.156001 -0.737991 6.539219 1.147050 -0.751781 9.234879 -0.784248 -5.314062 12.920105 -1.482850 -5.056005 -7.126391 -62.068504 -8.654783 -58.779788 -123.804036 -76.475559 -0.000001 -0.000001 0.000002 59.014392 -12.671732 4.034951 -0.000004 0.000005 -3.003510 -4.999752 -7.998712 0.000027 -5.378833 63.965213 6.792662 110.507365 54.121804 -84.659894 -0.000000 0.000000 -0.000001 60.130964 16.975375 -6.623638 -0.000002 0.000000 3.007360 -4.999680 7.998856 0.000046 -94.357151 -167.698971 -5.591954 179.999991 -0.000005 -0.314006 112.304238 -0.543201 -3.660915 -0.000003 -0.000002 0.566937 72.233834 4.566448 8.445673 25.463317 -7.355616 0.000859 -92.845500 179.064938 1.811923 -0.000032 -0.000004 -0.581707 -66.636931 1.018141 3.020766 -0.000006 -0.000001 -0.884335 72.350794 -5.235675 -6.567881 25.458874 7.355614 -0.001622 
52.691498 -0.810398 73.891678 34.394428 1.151827 7.995934 0.433274 0.581670 -0.365358 4.873309 1.153685 -0.738632 6.518462 1.144734 -0.752400 9.151559 -0.812952 -5.279499 12.926626 -1.434339 -5.028308 -7.093864 -62.150439 -8.623248 -58.913851 -124.041016 -76.271616 0.000001 0.000000 0.000001 58.243660 -12.883195 4.114571 -0.000007 0.000007 -3.003508 -4.999751 -7.998714 0.000028 -5.392632 63.977829 6.809533 110.738943 53.881798 -85.308530 0.000001 -0.000000 0.000000 59.372007 17.218483 -6.711940 -0.000003 -0.000000 3.007362 -4.999677 7.998859 0.000044 -93.934834 -167.690884 -5.508266 179.999991 -0.000004 -0.320003 112.494001 -0.608835 -3.682937 -0.000002 -0.000002 0.565976 72.279685 4.586930 8.392601 25.463317 -7.355616 0.000859 -92.451221 179.044735 1.848442 -0.000036 -0.000005 -0.583595 -66.470151 1.017712 3.007684 -0.000007 -0.000001 -0.882179 72.403024 -5.242519 -6.550997 25.458873 7.355614 -0.001622 
52.693798 -0.954729 74.025093 34.213780 1.152667 7.966984 0.422721 0.580605 -0.365655 4.852189 1.151410 -0.739288 6.497331 1.142457 -0.753030 9.069938 -0.840599 -5.245856 12.933866 -1.388772 -5.000919 -7.059567 -62.233241 -8.589753 -59.044991 -124.273571 -76.066205 0.000002 -0.000001 0.000001 57.471896 -13.089879 4.185796 -0.000002 0.000003 -3.003507 -4.999757 -7.998706 0.000029 -5.402059 63.992725 6.821602 110.961976 53.641721 -85.948061 -0.000000 0.000000 -0.000000 58.601206 17.456193 -6.789533 -0.000002 -0.000003 3.007359 -4.999679 7.998860 0.000043 -93.510692 -167.683658 -5.426903 179.999991 -0.000004 -0.326000 112.684850 -0.673164 -3.702967 -0.000002 -0.000002 0.564928 72.325618 4.607037 8.340446 25.463319 -7.355618 0.000859 -92.054797 179.025036 1.883585 -0.000038 -0.000005 -0.585504 -66.301664 1.017455 2.994612 -0.000006 -0.000002 -0.880000 72.454886 -5.249426 -6.533933 25.458876 7.355613 -0.001623 
52.698196 -1.056646 74.163582 34.032534 1.153051 7.939143 0.411956 0.579541 -0.365934 4.830650 1.149175 -0.739957 6.475784 1.140211 -0.753674 8.990071 -0.866132 -5.213527 12.941844 -1.347637 -4.974036 -7.023890 -62.316303 -8.554703 -59.171308 -124.501617 -75.857160 0.000002 0.000000 0.000001 56.700805 -13.291277 4.248558 -0.000004 0.000004 -3.003510 -4.999754 -7.998712 0.000031 -5.406145 64.010819 6.827853 111.174361 53.402691 -86.575940 0.000000 -0.000001 0.000002 57.820618 17.687250 -6.855522 -0.000004 -0.000002 3.007359 -4.999679 7.998857 0.000044 -93.085021 -167.677524 -5.347712 179.999991 -0.000004 -0.331997 112.876191 -0.736510 -3.722993 -0.000002 -0.000002 0.563773 72.372063 4.626556 8.289766 25.463321 -7.355617 0.000859 -91.656262 179.006158 1.919067 -0.000035 -0.000005 -0.587420 -66.131401 1.017406 2.981578 -0.000007 -0.000001 -0.877779 72.506351 -5.256329 -6.516785 25.458871 7.355613 -0.001623 
52.697598 -1.169205 74.326385 33.850978 1.152929 7.912704 0.400944 0.578468 -0.366198 4.808615 1.146950 -0.740645 6.453751 1.137984 -0.754337 8.912013 -0.888498 -5.182910 12.950749 -1.312425 -4.947809 -6.987186 -62.398996 -8.518478 -59.291964 -124.724432 -75.644297 0.000000 0.000000 -0.000001 55.932088 -13.486588 4.302622 -0.000005 0.000003 -3.003509 -4.999755 -7.998712 0.000028 -5.403936 64.033064 6.827279 111.376637 53.165083 -87.192399 -0.000000 -0.000000 0.000000 57.032226 17.910528 -6.909616 -0.000004 -0.000005 3.007359 -4.999678 7.998859 0.000044 -92.658018 -167.672880 -5.272093 179.999991 -0.000005 -0.337994 113.067682 -0.797637 -3.741216 -0.000004 -0.000001 0.562488 72.419437 4.645418 8.240927 25.463323 -7.355616 0.000859 -91.255719 178.988345 1.953290 -0.000038 -0.000004 -0.589335 -65.959144 1.017616 2.968604 -0.000006 -0.000002 -0.875492 72.557523 -5.263204 -6.499637 25.458874 7.355613 -0.001622 
52.702995 -1.289303 74.465485 33.669219 1.152252 7.887931 0.389643 0.577377 -0.366442 4.786016 1.144736 -0.741354 6.431146 1.135761 -0.755019 8.835820 -0.906637 -5.154361 12.960815 -1.284628 -4.922423 -6.949842 -62.480726 -8.481515 -59.404956 -124.941782 -75.425472 -0.000000 -0.000001 0.000002 55.167503 -13.675081 4.347777 -0.000004 0.000003 -3.003507 -4.999753 -7.998708 0.000028 -5.394441 64.060392 6.818843 111.566905 52.930110 -87.795054 0.000001 -0.000001 -0.000000 56.237875 18.124735 -6.951115 -0.000001 -0.000005 3.007359 -4.999676 7.998858 0.000044 -92.230025 -167.669970 -5.201106 179.999991 -0.000005 -0.344004 113.258832 -0.856063 -3.756805 -0.000003 -0.000002 0.561056 72.468191 4.663428 8.194484 25.463321 -7.355618 0.000859 -90.853250 178.971816 1.987154 -0.000036 -0.000005 -0.591236 -65.784899 1.018136 2.955744 -0.000007 -0.000002 -0.873119 72.608387 -5.270027 -6.482487 25.458876 7.355613 -0.001622 
52.707798 -1.397228 74.619881 33.487547 1.150969 7.865104 0.378037 0.576256 -0.366665 4.762787 1.142502 -0.742084 6.407926 1.133526 -0.755723 8.761557 -0.919495 -5.128273 12.972122 -1.265722 -4.898069 -6.912265 -62.560817 -8.444215 -59.507067 -125.153941 -75.197350 0.000003 -0.000001 0.000003 54.408457 -13.855981 4.383817 -0.000003 0.000002 -3.003509 -4.999756 -7.998706 0.000030 -5.376693 64.093846 6.801501 111.744436 52.698427 -88.382662 0.000001 0.000000 0.000000 55.439573 18.328468 -6.979850 -0.000004 -0.000003 3.007358 -4.999677 7.998864 0.000045 -91.801315 -167.668863 -5.135503 180.000005 -0.000005 -0.349004 113.449217 -0.910890 -3.770950 -0.000002 -0.000002 0.559453 72.518891 4.680348 8.151176 25.463321 -7.355617 0.000859 -90.448917 178.956776 2.021092 -0.000036 -0.000004 -0.593111 -65.608461 1.019003 2.943006 -0.000006 -0.000002 -0.870638 72.658828 -5.276731 -6.465738 25.458873 7.355614 -0.001622 
52.714397 -1.518536 74.764183 33.306069 1.149003 7.844523 0.366081 0.575095 -0.366871 4.738866 1.140251 -0.742843 6.384007 1.131274 -0.756452 8.689274 -0.926009 -5.105004 12.984885 -1.257208 -4.874886 -6.874849 -62.638675 -8.407017 -59.597697 -125.360240 -74.959475 0.000001 -0.000001 0.000000 53.656802 -14.028498 4.410736 -0.000003 0.000003 -3.003511 -4.999754 -7.998707 0.000030 -5.349683 64.134240 6.774196 111.909945 52.470534 -88.955940 0.000000 -0.000000 0.000001 54.639314 18.520422 -6.995579 -0.000003 -0.000004 3.007360 -4.999678 7.998857 0.000043 -91.372106 -167.669943 -5.076118 179.999991 -0.000005 -0.354003 113.638372 -0.961988 -3.782703 -0.000003 -0.000003 0.557661 72.571846 4.696121 8.111183 25.463319 -7.355618 0.000859 -90.042739 178.943675 2.053195 -0.000037 -0.000005 -0.594951 -65.429654 1.020276 2.930433 -0.000005 -0.000002 -0.868025 72.708955 -5.283322 -6.449279 25.458871 7.355613 -0.001623 
52.713593 -1.641178 74.920090 33.124075 1.146370 7.826156 0.353783 0.573896 -0.367074 4.714276 1.137979 -0.743735 6.359408 1.128991 -0.757312 8.621181 -0.927984 -5.084570 12.997584 -1.257193 -4.853185 -6.839178 -62.716347 -8.371860 -59.678996 -125.562195 -74.714128 -0.000000 -0.000000 -0.000000 52.904596 -14.191969 4.430271 -0.000007 0.000005 -3.003507 -4.999756 -7.998708 0.000031 -5.307150 64.182728 6.729894 112.057176 52.245886 -89.508980 -0.000000 -0.000000 0.000001 53.827727 18.700595 -7.001335 -0.000006 -0.000000 3.007358 -4.999678 7.998858 0.000044 -90.941469 -167.672333 -5.022680 179.999991 -0.000005 -0.358006 113.826393 -1.009246 -3.791068 -0.000003 -0.000002 0.555683 72.627054 4.710868 8.074222 25.463319 -7.355617 0.000859 -89.633932 178.932487 2.084484 -0.000036 -0.000004 -0.596787 -65.248845 1.021734 2.917865 -0.000006 -0.000002 -0.865316 72.758979 -5.289839 -6.433008 25.458876 7.355614 -0.001622 
